<?xml version="1.0" encoding="utf-8"?>
<!-- Generator: Adobe Illustrator 18.0.0, SVG Export Plug-In . SVG Version: 6.00 Build 0)  -->
<!DOCTYPE svg PUBLIC "-//W3C//DTD SVG 1.1//EN" "http://www.w3.org/Graphics/SVG/1.1/DTD/svg11.dtd">
<svg version="1.1" id="Layer_1" xmlns="http://www.w3.org/2000/svg" xmlns:xlink="http://www.w3.org/1999/xlink" x="0px" y="0px"
	 viewBox="0 0 800 600" enable-background="new 0 0 800 600" xml:space="preserve">
<g>
	<path fill="#1C65A4" d="M250.2,251.1c9.5,0.2,18.5,2.9,26.2,7.3c2.3-2,4.7-3.9,7-5.9c-8.4-5.1-18.3-8-28.9-8
		c-19.5,0-36.6,9.9-46.7,25C218.2,257.9,233.4,250.7,250.2,251.1z"/>
	<path fill="#1C65A4" d="M221.4,346c8.1-11,23-31.5,22.9-31.7l-10.4-1.8c7.1-8.1,13.9-15.8,21-23.9c-3.8-1.1-7.1-2-10.7-3.1
		c10.9-9.1,21.5-18.1,32.2-27.1c-7.7-4.4-16.6-7.1-26.2-7.3c-16.8-0.4-32,6.8-42.4,18.4c-6,8.9-9.5,19.7-9.5,31.2
		C198.3,319.3,207.4,335.8,221.4,346z"/>
	<linearGradient id="SVGID_1_" gradientUnits="userSpaceOnUse" x1="219.9092" y1="310.858" x2="305.2424" y2="310.858">
		<stop  offset="0" style="stop-color:#F9BD5D"/>
		<stop  offset="1" style="stop-color:#E47F2E"/>
	</linearGradient>
	<path fill="url(#SVGID_1_)" d="M305.2,307.6c0.5-19.7-9.5-37.2-24.8-47.4c-3.5,5.4-7,10.6-10.6,16.1c2.7,1.1,5,2,7.6,3
		c-5.9,7.2-11.7,14.2-17.8,21.5l13.1,4.1c0,0-37,33.5-52.8,47.6c8.3,5.4,18.2,8.7,28.9,9C279.2,362.2,304.5,338.1,305.2,307.6z"/>
	<g>
		<text transform="matrix(1 0 0 1 334.0129 315.8921)" fill="#1C65A4" font-family="'AbeatbyKai'" font-size="73.0645">Kahane</text>
	</g>
	<g>
		<text transform="matrix(1 0 0 1 330.465 341.3141)" fill="#1C65A4" font-family="'Dual-300'" font-size="32.1571">Energy Engineering</text>
	</g>
</g>
</svg>
